<?xml version="1.0" encoding="utf-8"?>
<!-- Generator: Adobe Illustrator 18.1.1, SVG Export Plug-In . SVG Version: 6.00 Build 0)  -->
<svg version="1.1" id="Layer_1" xmlns="http://www.w3.org/2000/svg" xmlns:xlink="http://www.w3.org/1999/xlink" x="0px" y="0px"
	 width="218px" height="192px" viewBox="-274 417 218 192" enable-background="new -274 417 218 192" xml:space="preserve">
<g>
	<polygon points="-188.1,538 -190.5,545.8 -183.2,545.8 -185.6,538 	"/>
	<path d="M-181,504c0.4-0.4,0.4-1.1,0.4-2.9c0-1.8,0-2.4-0.4-2.9c-0.2-0.2-0.9-0.4-2.2-0.4h-7.5v6.7h7.5
		C-181.9,504.5-181.2,504.3-181,504z"/>
	<path d="M-142.6,468.8c0-0.2-0.2-0.4-0.4-0.4s-0.7,0.2-0.7,0.2c-2.4,1.8-4.9,4-6.7,6c0.2,0.4,0.7,0.4,0.9,0.4
		C-147.2,475.2-142.6,469.9-142.6,468.8z"/>
	<path d="M-148.1,498h-4.9c-1.3,0-2,0-2.2,0.4c-0.4,0.4-0.7,1.3-0.7,8.7s0.2,8.4,0.7,8.7c0.2,0.2,0.7,0.4,2.2,0.4h4.9
		c1.3,0,2,0,2.2-0.4c0.4-0.4,0.7-1.3,0.7-8.7s-0.2-8.4-0.7-8.7C-146.4,498.3-146.8,498-148.1,498z"/>
	<path d="M-147.9,536.7h-7.5v6.7h7.5c1.3,0,2,0,2.2-0.4c0.4-0.4,0.4-1.1,0.4-2.9c0-1.8,0-2.4-0.4-2.9
		C-145.9,536.9-146.4,536.7-147.9,536.7z"/>
	<path d="M-110.9,536.9h-8v18.6h7.8c2.2,0,2.9-0.2,3.6-0.7c0.4-0.4,0.7-2,0.7-8.7c0-6.7-0.2-8.2-0.7-8.7
		C-107.7,536.9-108.6,536.9-110.9,536.9z"/>
	<path d="M-61.4,474.5l-99-55.9c-2.7-1.6-7.1-1.6-9.8,0l-99,55.9c-2.5,1.6-4.8,5.6-4.8,8.7v81.7c0,3.1,2.4,6.4,5.5,7.3l97.9,35.7
		c3.1,0.9,8,0.9,11.1,0l97.9-35.7c3.1-0.9,5.5-4.2,5.5-7.3v-81.7C-56.3,479.8-58.5,476.1-61.4,474.5z M-193.2,453.7
		c3.8-1.6,9.5-0.9,16.6-0.9c17.1,0,33.5-1.1,34.4-1.1c0.4,0,0.7-0.4,3.8,2.2c0.4,0.4,1.8,1.1,1.8,1.8c0,0.4-1.6,0.7-2.4,0.9
		c-2.7,0.2-6,0.7-9.3,0.9c-2.4,0.7-4.4,2.2-6,3.8c-4.9,4.7-8.4,7.1-9.3,8.4c2.4-1.1,3.8-2,5.5-2c1.1,0,3.3,1.1,3.3,2.7
		c0,0.4-0.2,0.7-0.7,1.1c-1.8,1.6-7.3,5.8-7.3,7.8c0,0.4,0.2,0.4,0.4,0.4c0.7,0,2.9-1.6,5.1-3.1c1.3-0.9,2.4-2.7,2.9-3.3
		c1.1-1.6,2.4-3.1,4-4.4c2.9-2.7,5.1-3.8,6.4-3.8c0.7,0,1.8,0.7,2.7,1.8c1.3,1.1,1.3,1.8,1.3,2.2c0,3.6-6,8.4-8.7,8.4
		c-0.7,0-1.8-0.4-2.7-1.3c-0.7,1.1-1.1,2-1.1,2.7c0,0.7,0.2,1.3,1.3,1.3c0.7,0,1.6-0.2,2-0.4c6.7-2.4,10.2-5.8,10.4-5.8
		s0.2,0.2,0.2,0.4c0,0.4-1.6,2-2.9,3.3c-2.7,2.4-6.2,5.1-9.8,5.1c-1.6,0-4.9-3.6-5.1-5.1c-2.2,2-6,4.7-7.5,4.7c-2,0-3.1-2.7-3.1-4.4
		c0-2.2,2.9-5.1,5.3-7.5c-2.9,1.1-6,4-11.1,10.2c-0.2,0.2-0.9,1.8-1.3,1.8c-0.7,0-3.1-2-3.1-3.3c0-0.2,0-0.4,0.2-0.9
		c4.4-6.7,14-15.3,20-20.6c-1.6,0-2.9,0-3.8,0c-1.1,0-4.4,2.7-6.9,5.1c-2.9,2.9-10.2,10-15.1,16.2c-2.9,3.8-2.4,4.9-3.1,4.9
		c-1.6,0-4-4.4-4-5.1c0-2.2,6.7-8.7,10-11.8c5.5-5.3,8.9-8.2,9.5-8.7c0.2-0.2,0.9-0.7,0.9-0.7c-7.8-1.3-16-3.8-20.9-2.4
		c-6.2,1.8-9.3,15.1-0.4,11.8c3.8-1.3,7.3-4.2,9.3-6.9c0.9-0.9,1.3-0.4,0.4,0.9c-2.9,4.4-7.1,8.4-15.3,8.9
		C-204.3,470.1-202.7,457.7-193.2,453.7z M-135,507.1c0,9.3-1.1,13.1-3.1,14.9c-1.3,1.3-2.7,1.8-6.2,1.8h-12.4
		c-3.6,0-4.9-0.4-6.2-1.8c-2-2-3.1-5.8-3.1-14.9c0-9.3,1.1-13.1,3.1-14.9c1.3-1.3,2.7-1.8,6.2-1.8h12.4c3.6,0,4.9,0.4,6.2,1.8
		C-136.1,494.3-135,498-135,507.1z M-204.1,516.5h3.6v-18.7h-3.6v-7.5h26c2.9,0,4.7,0.4,6,1.8c1.6,1.6,2,3.3,2,7.5
		c0,6-1.6,7.3-5.5,8.2l5.1,8.7h3.1v7.5h-10.5l-7.3-12.6h-5.5v5.1h3.6v7.5h-17V516.5L-204.1,516.5z M-235.6,516.5h9.1v-18.7h-9.1
		v-7.5h29.1v7.5h-9.1v18.6h9.1v7.5h-29.1V516.5z M-209.2,562.9h-17.3v-7.5h3.8v-5.1l-9.8-13.3h-3.3v-7.5h17.3v7.3h-2.9l3.8,5.8h0.2
		l4-5.8h-2.9v-7.3h16.6v7.5h-3.3l-10,13.1v5.3h3.8C-209.2,555.4-209.2,562.9-209.2,562.9z M-99.8,560.2c-2,2-4.7,2.7-9.3,2.7H-128
		h-4h-10.4l-7.3-12.6h-5.5v5.1h3.6v7.5h-15.5h-1.3h-15.2v-7.3h3.1l-0.9-2.9h-10.9l-0.7,2.9h3.1v7.3h-16.6v-7.5h3.8l8.9-26.2h15.1
		l8.9,26.2h1.3h1.3h2.2v-18.6h-3.6v-7.5h26c2.9,0,4.7,0.4,6,1.8c1.6,1.6,2,3.3,2,7.5c0,6-1.6,7.3-5.5,8.2l5.1,8.7h3.3h3.6v-18.6
		h-3.6v-7.5h22.9c4.9,0,7.3,0.7,9.3,2.7c2.2,2.2,3.6,5.8,3.6,14.2C-96.2,554.4-97.5,558-99.8,560.2z M-94.6,497.8h-3.6v26h-11.1
		l-11.8-19.1v11.5h3.6v7.5h-16v-7.5h3.6v-18.6h-3.6v-7.5h15.3l11.1,17.1v-9.8h-3.3v-7.5h15.5L-94.6,497.8L-94.6,497.8z"/>
</g>
</svg>
